<?xml version="1.0" encoding="utf-8"?>
<!-- Generator: Adobe Illustrator 16.0.0, SVG Export Plug-In . SVG Version: 6.00 Build 0)  -->
<svg version="1.2" baseProfile="tiny" xmlns="http://www.w3.org/2000/svg" xmlns:xlink="http://www.w3.org/1999/xlink" x="0px"
	 y="0px" width="120px" height="20px" viewBox="0 0 120 20" xml:space="preserve">
<g id="Layer_1" display="none">
	<rect x="23.875" y="2.219" display="inline" width="16" height="16"/>
	<rect x="40" y="2" display="inline" width="16" height="16"/>
	<rect x="56" y="2" display="inline" width="16" height="16"/>
	<rect x="72" y="2" display="inline" width="16" height="16"/>
	<rect x="88" y="2" display="inline" width="16" height="16"/>
	<rect x="104" y="2" display="inline" width="16" height="16"/>
	<g display="inline">
		<line fill="none" stroke="#00A651" stroke-width="0.1" x1="120" y1="-98" x2="120" y2="118"/>
		<line fill="none" stroke="#00A651" stroke-width="0.1" x1="104" y1="-98" x2="104" y2="118"/>
		<line fill="none" stroke="#00A651" stroke-width="0.1" x1="104" y1="-98" x2="104" y2="118"/>
		<line fill="none" stroke="#00A651" stroke-width="0.1" x1="88" y1="-98" x2="88" y2="118"/>
		<line fill="none" stroke="#00A651" stroke-width="0.1" x1="88" y1="-98" x2="88" y2="118"/>
		<line fill="none" stroke="#00A651" stroke-width="0.1" x1="72" y1="-98" x2="72" y2="118"/>
		<line fill="none" stroke="#00A651" stroke-width="0.1" x1="72" y1="-98" x2="72" y2="118"/>
		<line fill="none" stroke="#00A651" stroke-width="0.1" x1="56" y1="-98" x2="56" y2="118"/>
		<line fill="none" stroke="#00A651" stroke-width="0.1" x1="56" y1="-98" x2="56" y2="118"/>
		<line fill="none" stroke="#00A651" stroke-width="0.1" x1="40" y1="-98" x2="40" y2="118"/>
		<line fill="none" stroke="#00A651" stroke-width="0.1" x1="40" y1="-98" x2="40" y2="118"/>
		<line fill="none" stroke="#00A651" stroke-width="0.1" x1="24" y1="-98" x2="24" y2="118"/>
		<line fill="none" stroke="#00A651" stroke-width="0.1" x1="-76" y1="18" x2="220" y2="18"/>
		<line fill="none" stroke="#00A651" stroke-width="0.1" x1="-76" y1="2" x2="220" y2="2"/>
	</g>
</g>
<g id="Layer_6">
	<g>
		<g>
			<polyline fill="none" stroke="#DAD7C5" stroke-miterlimit="10" points="37.5,14 37.5,17.5 34,17.5 			"/>
			<polyline fill="none" stroke="#DAD7C5" stroke-miterlimit="10" points="26,17.5 22.5,17.5 22.5,14 			"/>
			<polyline fill="none" stroke="#DAD7C5" stroke-miterlimit="10" points="22.5,6 22.5,2.5 26,2.5 			"/>
			<polyline fill="none" stroke="#DAD7C5" stroke-miterlimit="10" points="34,2.5 37.5,2.5 37.5,6 			"/>
		</g>
		<rect x="29" y="9" fill="#DAD7C5" width="2" height="2"/>
	</g>
	<g>
		<g>
			<polyline fill="none" stroke="#DAD7C5" stroke-miterlimit="10" points="57.5,14 57.5,17.5 54,17.5 			"/>
			<polyline fill="none" stroke="#DAD7C5" stroke-miterlimit="10" points="46,17.5 42.5,17.5 42.5,14 			"/>
			<polyline fill="none" stroke="#DAD7C5" stroke-miterlimit="10" points="42.5,6 42.5,2.5 46,2.5 			"/>
			<polyline fill="none" stroke="#DAD7C5" stroke-miterlimit="10" points="54,2.5 57.5,2.5 57.5,6 			"/>
		</g>
		<rect x="42.5" y="2.5" fill="none" stroke="#DAD7C5" stroke-miterlimit="10" width="5" height="5"/>
		<rect x="49" y="9" fill="#DAD7C5" width="2" height="2"/>
	</g>
	<g>
		<g>
			<polyline fill="none" stroke="#DAD7C5" stroke-miterlimit="10" points="77.5,14 77.5,17.5 74,17.5 			"/>
			<polyline fill="none" stroke="#DAD7C5" stroke-miterlimit="10" points="66,17.5 62.5,17.5 62.5,14 			"/>
			<polyline fill="none" stroke="#DAD7C5" stroke-miterlimit="10" points="62.5,6 62.5,2.5 66,2.5 			"/>
			<polyline fill="none" stroke="#DAD7C5" stroke-miterlimit="10" points="74,2.5 77.5,2.5 77.5,6 			"/>
		</g>
		<rect x="72.5" y="2.5" fill="none" stroke="#DAD7C5" stroke-miterlimit="10" width="5" height="5"/>
		<rect x="69" y="9" fill="#DAD7C5" width="2" height="2"/>
	</g>
	<g>
		<rect x="92.5" y="12.5" fill="none" stroke="#DAD7C5" stroke-miterlimit="10" width="5" height="5"/>
		<g>
			<polyline fill="none" stroke="#DAD7C5" stroke-miterlimit="10" points="97.5,14 97.5,17.5 94,17.5 			"/>
			<polyline fill="none" stroke="#DAD7C5" stroke-miterlimit="10" points="86,17.5 82.5,17.5 82.5,14 			"/>
			<polyline fill="none" stroke="#DAD7C5" stroke-miterlimit="10" points="82.5,6 82.5,2.5 86,2.5 			"/>
			<polyline fill="none" stroke="#DAD7C5" stroke-miterlimit="10" points="94,2.5 97.5,2.5 97.5,6 			"/>
		</g>
		<rect x="89" y="9" fill="#DAD7C5" width="2" height="2"/>
	</g>
	<g>
		<rect x="102.5" y="12.5" fill="none" stroke="#DAD7C5" stroke-miterlimit="10" width="5" height="5"/>
		<g>
			<polyline fill="none" stroke="#DAD7C5" stroke-miterlimit="10" points="117.5,14 117.5,17.5 114,17.5 			"/>
			<polyline fill="none" stroke="#DAD7C5" stroke-miterlimit="10" points="106,17.5 102.5,17.5 102.5,14 			"/>
			<polyline fill="none" stroke="#DAD7C5" stroke-miterlimit="10" points="102.5,6 102.5,2.5 106,2.5 			"/>
			<polyline fill="none" stroke="#DAD7C5" stroke-miterlimit="10" points="114,2.5 117.5,2.5 117.5,6 			"/>
		</g>
		<rect x="109" y="9" fill="#DAD7C5" width="2" height="2"/>
	</g>
	<g>
		<rect x="2.5" y="2.5" fill="none" stroke="#DAD7C5" stroke-miterlimit="10" width="15" height="15"/>
		<rect x="9" y="9" fill="#DAD7C5" width="2" height="2"/>
	</g>
</g>
<g id="Layer_2" display="none">
	<g display="inline">
		<g>
			<line fill="#C6CDC7" x1="72" y1="2.062" x2="56" y2="18.062"/>
			<g>
				<line fill="none" stroke="#DAD7C5" stroke-miterlimit="10" x1="72" y1="2.062" x2="69.525" y2="4.538"/>
				
					<line fill="none" stroke="#DAD7C5" stroke-miterlimit="10" stroke-dasharray="5.2091,5.2091" x1="65.842" y1="8.221" x2="60.316" y2="13.746"/>
				<line fill="none" stroke="#DAD7C5" stroke-miterlimit="10" x1="58.475" y1="15.588" x2="56" y2="18.062"/>
			</g>
		</g>
		<g>
			<line fill="#C6CDC7" x1="56" y1="2" x2="72" y2="18.062"/>
			<g>
				<line fill="none" stroke="#DAD7C5" stroke-miterlimit="10" x1="56" y1="2" x2="58.47" y2="4.479"/>
				
					<line fill="none" stroke="#DAD7C5" stroke-miterlimit="10" stroke-dasharray="5.2239,5.2239" x1="62.157" y1="8.181" x2="67.687" y2="13.732"/>
				<line fill="none" stroke="#DAD7C5" stroke-miterlimit="10" x1="69.53" y1="15.583" x2="72" y2="18.062"/>
			</g>
		</g>
	</g>
</g>
<g id="Layer_3">
</g>
<g id="Layer_4" display="none">
	<g display="inline">
		<line fill="#C6CDC7" stroke="#DAD7C5" stroke-miterlimit="10" x1="40" y1="2.062" x2="24" y2="18.062"/>
		<line fill="#C6CDC7" stroke="#DAD7C5" stroke-miterlimit="10" x1="24" y1="2" x2="40" y2="18.062"/>
	</g>
</g>
<g id="Layer_5" display="none">
	<g display="inline">
		<g>
			<line fill="#C6CDC7" x1="104" y1="2.062" x2="88" y2="18.062"/>
			<g>
				<line fill="none" stroke="#DAD7C5" stroke-miterlimit="10" x1="104" y1="2.062" x2="101.525" y2="4.538"/>
				
					<line fill="none" stroke="#DAD7C5" stroke-miterlimit="10" stroke-dasharray="5.2091,5.2091" x1="97.842" y1="8.221" x2="92.316" y2="13.746"/>
				<line fill="none" stroke="#DAD7C5" stroke-miterlimit="10" x1="90.475" y1="15.588" x2="88" y2="18.062"/>
			</g>
		</g>
		<g>
			<line fill="#C6CDC7" x1="88" y1="2" x2="104" y2="18.062"/>
			<g>
				<line fill="none" stroke="#DAD7C5" stroke-miterlimit="10" x1="88" y1="2" x2="90.47" y2="4.479"/>
				
					<line fill="none" stroke="#DAD7C5" stroke-miterlimit="10" stroke-dasharray="5.2239,5.2239" x1="94.156" y1="8.181" x2="99.687" y2="13.732"/>
				<line fill="none" stroke="#DAD7C5" stroke-miterlimit="10" x1="101.53" y1="15.583" x2="104" y2="18.062"/>
			</g>
		</g>
	</g>
	<g display="inline">
		<g>
			<line fill="#C6CDC7" x1="88" y1="2.062" x2="72" y2="18.062"/>
			<g>
				<line fill="none" stroke="#DAD7C5" stroke-miterlimit="10" x1="88" y1="2.062" x2="85.525" y2="4.538"/>
				
					<line fill="none" stroke="#DAD7C5" stroke-miterlimit="10" stroke-dasharray="5.2091,5.2091" x1="81.842" y1="8.221" x2="76.316" y2="13.746"/>
				<line fill="none" stroke="#DAD7C5" stroke-miterlimit="10" x1="74.475" y1="15.588" x2="72" y2="18.062"/>
			</g>
		</g>
		<g>
			<line fill="#C6CDC7" x1="72" y1="2" x2="88" y2="18.062"/>
			<g>
				<line fill="none" stroke="#DAD7C5" stroke-miterlimit="10" x1="72" y1="2" x2="74.47" y2="4.479"/>
				
					<line fill="none" stroke="#DAD7C5" stroke-miterlimit="10" stroke-dasharray="5.2239,5.2239" x1="78.156" y1="8.181" x2="83.687" y2="13.732"/>
				<line fill="none" stroke="#DAD7C5" stroke-miterlimit="10" x1="85.53" y1="15.583" x2="88" y2="18.062"/>
			</g>
		</g>
	</g>
	<g display="inline">
		<g>
			<line fill="#C6CDC7" x1="120" y1="2.062" x2="104" y2="18.062"/>
			<g>
				<line fill="none" stroke="#DAD7C5" stroke-miterlimit="10" x1="120" y1="2.062" x2="117.525" y2="4.538"/>
				
					<line fill="none" stroke="#DAD7C5" stroke-miterlimit="10" stroke-dasharray="5.2091,5.2091" x1="113.842" y1="8.221" x2="108.316" y2="13.746"/>
				<line fill="none" stroke="#DAD7C5" stroke-miterlimit="10" x1="106.475" y1="15.588" x2="104" y2="18.062"/>
			</g>
		</g>
		<g>
			<line fill="#C6CDC7" x1="104" y1="2" x2="120" y2="18.062"/>
			<g>
				<line fill="none" stroke="#DAD7C5" stroke-miterlimit="10" x1="104" y1="2" x2="106.47" y2="4.479"/>
				
					<line fill="none" stroke="#DAD7C5" stroke-miterlimit="10" stroke-dasharray="5.2239,5.2239" x1="110.156" y1="8.181" x2="115.687" y2="13.732"/>
				<line fill="none" stroke="#DAD7C5" stroke-miterlimit="10" x1="117.53" y1="15.583" x2="120" y2="18.062"/>
			</g>
		</g>
	</g>
	<path display="inline" fill="none" stroke="#DAD7C5" stroke-miterlimit="10" stroke-dasharray="7,7" d="M56,2"/>
	<path display="inline" fill="none" stroke="#DAD7C5" stroke-miterlimit="10" stroke-dasharray="7,7" d="M53.521,2"/>
	<path display="inline" fill="none" stroke="#DAD7C5" stroke-miterlimit="10" stroke-dasharray="7,7" d="M56,1.997"/>
	<path display="inline" fill="none" stroke="#DAD7C5" stroke-miterlimit="10" stroke-dasharray="7,7" d="M56,4.477"/>
	
		<line display="inline" fill="none" stroke="#DAD7C5" stroke-width="0.5" stroke-miterlimit="10" stroke-dasharray="7,7" x1="103.727" y1="15.25" x2="103.727" y2="17.729"/>
	
		<line display="inline" fill="none" stroke="#DAD7C5" stroke-width="0.5" stroke-miterlimit="10" stroke-dasharray="7,7" x1="101.25" y1="17.729" x2="103.729" y2="17.729"/>
	<path display="inline" fill="none" stroke="#DAD7C5" stroke-miterlimit="10" stroke-dasharray="7,7" d="M55.253-1.167"/>
	<path display="inline" fill="none" stroke="#DAD7C5" stroke-miterlimit="10" stroke-dasharray="7,7" d="M55.253,1.313"/>
	<path display="inline" fill="none" stroke="#DAD7C5" stroke-miterlimit="10" stroke-dasharray="7,7" d="M55.25-1.167"/>
	<path display="inline" fill="none" stroke="#DAD7C5" stroke-miterlimit="10" stroke-dasharray="7,7" d="M57.729-1.167"/>
	<path display="inline" fill="none" stroke="#DAD7C5" stroke-miterlimit="10" stroke-dasharray="7,7" d="M88,2"/>
	<path display="inline" fill="none" stroke="#DAD7C5" stroke-miterlimit="10" stroke-dasharray="7,7" d="M88,4.479"/>
	
		<line display="inline" fill="none" stroke="#DAD7C5" stroke-width="0.5" stroke-miterlimit="10" stroke-dasharray="7,7" x1="106.729" y1="17.727" x2="104.25" y2="17.727"/>
	
		<line display="inline" fill="none" stroke="#DAD7C5" stroke-width="0.5" stroke-miterlimit="10" stroke-dasharray="7,7" x1="104.25" y1="15.25" x2="104.25" y2="17.729"/>
	
		<line display="inline" fill="none" stroke="#DAD7C5" stroke-width="0.5" stroke-miterlimit="10" stroke-dasharray="7,7" x1="85.25" y1="2.252" x2="87.729" y2="2.252"/>
	
		<line display="inline" fill="none" stroke="#DAD7C5" stroke-width="0.5" stroke-miterlimit="10" stroke-dasharray="7,7" x1="87.729" y1="4.729" x2="87.729" y2="2.25"/>
	
		<line display="inline" fill="none" stroke="#DAD7C5" stroke-width="0.5" stroke-miterlimit="10" stroke-dasharray="7,7" x1="56.252" y1="4.729" x2="56.252" y2="2.25"/>
	
		<line display="inline" fill="none" stroke="#DAD7C5" stroke-width="0.5" stroke-miterlimit="10" stroke-dasharray="7,7" x1="58.729" y1="2.25" x2="56.25" y2="2.25"/>
</g>
</svg>
